<svg xmlns="http://www.w3.org/2000/svg" width="64" height="64"><g transform="translate(-.75 -988.612)"><path fill="#3aa7f9" d="m41.9 1030.262-8.43-7.984 5.53 10.208-6.076-9.893 2.7 11.292-3.309-11.13-.315 11.607-.315-11.606-3.308 11.13 2.7-11.293-6.077 9.893 5.53-10.208-8.43 7.984 7.985-8.43-10.21 5.53 9.894-6.076-11.292 2.7 11.13-3.309-11.607-.315 11.606-.315-11.129-3.308 11.292 2.7-9.893-6.077 10.209 5.53-7.984-8.43 8.43 7.985-5.531-10.21 6.076 9.895-2.7-11.293 3.309 11.13.315-11.607.315 11.607 3.308-11.13-2.7 11.293 6.077-9.894-5.53 10.209 8.43-7.984-7.985 8.43 10.21-5.53-9.894 6.075 11.292-2.7-11.13 3.31 11.607.314-11.606.315 11.129 3.309-11.292-2.7 9.893 6.076-10.209-5.53z"/><circle cx="32" cy="1020.362" r="13.75" fill="none" stroke="#3aa7f9" stroke-linecap="round" stroke-linejoin="round"/></g></svg>